<svg
    xmlns="http://www.w3.org/2000/svg"
    xmlns:xlink="http://www.w3.org/1999/xlink"
    viewBox="0 0 402.68 433.27"
    class="logo"
  >
<linearGradient id="gradient-horizontal" x2="0" y2="1">
    <stop offset="0%" stop-color="var(--color-stop-1)" />
    <stop offset="80%" stop-color="var(--color-stop-2)" />
</linearGradient>
<path
    d="M201.6,433.27c-.68-2-1.08-2.89-1.33-3.86-6.09-24-20.29-42-41.9-53.65-13.89-7.48-28.48-13.68-42.87-20.2C51.66,326.63,13.6,277.07,2.56,208.5-7.52,145.88,12.39,91.87,57.83,47.62,79.94,26.08,106.28,11.1,135.1.35A22.65,22.65,0,0,1,137.47,0c-5,2.74-9,4.81-12.84,7.1C92,26.4,68.67,53.38,59.82,90.61,48,140.3,58.89,184.73,95,221.8c11.69,12,26,20.13,42.1,25,13.26,4.07,21.4.83,27.06-11.81,4.64-10.34,8.07-21.21,12.42-31.69,12.21-29.46,34.5-40,65.85-38.19a12.37,12.37,0,0,1,1.79.53c-1.12,1.43-2.07,2.62-3,3.83-12.66,16.63-17.12,35.39-13.47,55.81,2,11.29,7.64,20.8,20,22.8a42.5,42.5,0,0,0,18.68-1.6c27.24-8.34,47.36-25.92,61.88-50.08,28.62-47.6,26.8-112.91-11.89-158A149.71,149.71,0,0,0,270.67,2.77c-1.08-.55-2.18-1.09-3.25-1.66C267.19,1,267,.78,267,0c1.88.7,3.78,1.35,5.65,2.1,33.16,13.2,62.43,32.08,85.86,59.34,25,29,40.37,62.49,43.39,100.71,5.92,74.91-23.65,133.73-84.08,177.1-12.13,8.71-26.78,13.9-40.29,20.66-12.67,6.35-25.81,11.89-37.95,19.12-19.09,11.35-31.06,28.5-36.61,50.05C202.73,430.17,202.3,431.22,201.6,433.27Z"
/>
</svg>